# xmcd
#
# Track frame offsets:
#	150
#	19108
#	35248
#	47384
#	63569
#	75473
#	89288
#	106445
#	124010
#	134408
#	149464
#	164007
#	181674
#	191188
#	206928
#
# Disc length: 2928 seconds
#
# Revision: 0
# Processed by: cddbd v1.4PL0 Copyright (c) Steve Scherf et al.
# Submitted via: audiograbber 1.82.01
#
DISCID=db0b6e0f
DTITLE=Various Artist - Oj Malucki Malucki
DYEAR=2003
DGENRE=Christmas
TTITLE0=Gdy siê Chrystus rodzi
TTITLE1=Bog sie rodzi
TTITLE2=Wsrod nocnej ciszy
TTITLE3=Oj Malucki Malucki
TTITLE4=W zlobie lezy
TTITLE5=Jezus Malusienki
TTITLE6=Bracia patrzcie jeno
TTITLE7=Janiol pasterzom mowil
TTITLE8=Pojdzmy sycka do stajynki
TTITLE9=Przybiezeli do Betlejem
TTITLE10=Dzisiaj w Betlejem
TTITLE11=Medrcy swiata Monarchowie
TTITLE12=Z narodzenia Pana
TTITLE13=Hej w dzien narodzenia
TTITLE14=Nowy rok biezy
EXTD=
EXTT0=
EXTT1=
EXTT2=
EXTT3=
EXTT4=
EXTT5=
EXTT6=
EXTT7=
EXTT8=
EXTT9=
EXTT10=
EXTT11=
EXTT12=
EXTT13=
EXTT14=
PLAYORDER=
